<?xml version="1.0" encoding="utf-8"?>
<!-- Generator: Adobe Illustrator 26.0.3, SVG Export Plug-In . SVG Version: 6.00 Build 0)  -->
<svg version="1.1" id="Capa_1" xmlns="http://www.w3.org/2000/svg" xmlns:xlink="http://www.w3.org/1999/xlink" x="0px" y="0px"
	 viewBox="0 0 359 357" style="enable-background:new 0 0 359 357;" xml:space="preserve">
<path d="M0,8.9c2-4.8,5.7-6.6,10.8-6.4c8.1,0.2,16.2,0,24.2,0.1c17.8,0.1,31.6,10.1,37.4,27c2.1,6.2,4.2,12.4,6.1,18.7
	c0.7,2.5,1.9,3.2,4.4,3.2c26.8,0.3,53.6,0.7,80.4,1.1c61.8,0.9,123.6,1.7,185.4,2.7c2.7,0,5.9,1,8,2.7c1.6,1.3,2.9,4.6,2.5,6.6
	c-6.9,29.4-13.5,58.8-21.3,87.9c-4.9,18.4-21.1,30.3-40.1,32.2c-32.7,3.3-65.4,6.8-98.1,10.3c-23.5,2.5-47,5-70.5,7.2
	c-4,0.4-6,1.8-7.6,5.5c-7.1,15.6,2.8,33,21.3,32.8c51.9-0.4,103.7-0.1,155.6-0.1c1.7,0,3.5,0.1,5.2,0.4c4.4,0.8,7,4.1,6.9,8.3
	c-0.2,4-3,7.2-7.2,7.8c-1.2,0.2-2.3,0.1-3.5,0.1c-52.6,0-105.1,0-157.7,0c-29.2,0-48-28.6-36.3-55.3c2.4-5.4,2.9-10.1,0.9-15.9
	C90,135.9,73.6,85.9,57,36c-3.9-11.6-11-16.8-23.3-16.8c-7.6,0-15.2-0.1-22.8,0C5.7,19.4,1.8,17.7,0,12.5C0,11.3,0,10.1,0,8.9z
	 M85.3,68c0.3,1.2,0.4,2,0.6,2.7c12.3,37.4,24.7,74.8,37,112.2c0.7,2,1.5,2.7,3.7,2.5c14.7-1.6,29.3-3,44-4.5
	c41.9-4.3,83.8-8.7,125.7-13.1c14.3-1.5,23.4-9.3,26.8-23.2c4.3-17.4,8.4-34.7,12.7-52.1c1.6-6.8,3.3-13.5,5-20.6
	C255.5,70.5,170.7,69.3,85.3,68z"/>
<path d="M114.7,352.4c-20.7,0-37.5-16.8-37.4-37.5c0-20.6,17-37.6,37.5-37.5c20.5,0,37.6,17.2,37.5,37.6
	C152.2,335.6,135.3,352.5,114.7,352.4z M114.9,335.7c11.4-0.1,20.7-9.5,20.7-20.8c0-11.4-9.5-20.7-20.8-20.8
	c-11.5,0-20.9,9.5-20.8,21.1C94.1,326.7,103.4,335.8,114.9,335.7z"/>
<path d="M310.7,315.1c-0.1,20.8-16.8,37.4-37.6,37.4c-20.7,0-37.4-16.9-37.4-37.6c0.1-20.6,17.1-37.6,37.6-37.5
	C294,277.5,310.8,294.5,310.7,315.1z M272.9,335.7c11.5,0.2,21.1-9.1,21.2-20.6c0.1-11.2-9.3-20.8-20.7-20.9
	c-11.3-0.1-20.7,9-21.1,20.5C252,325.9,261.4,335.5,272.9,335.7z"/>
</svg>
